# xmcd
#
# Track frame offsets:
#	150
#	23157
#	43865
#	69818
#	90062
#	111209
#	132410
#	154483
#	175548
#	204726
#
# Disc length: 3007 seconds
#
# Revision: 1
# Processed by: cddbd v1.5.2PL0 Copyright (c) Steve Scherf et al.
# Submitted via: audiograbber 1.83.01
#
DISCID=7c0bbd0a
DTITLE=Elisabeth Cutler - Slow Release
DYEAR=2011
DGENRE=Blues
TTITLE0=Missing Love
TTITLE1=I Want to understand You
TTITLE2=Lost or Found
TTITLE3=Gone in a Storm
TTITLE4=Thin Line
TTITLE5=We Already Know
TTITLE6=Ghost of my Blues
TTITLE7=Straight for Reality
TTITLE8=Deep in Blue
TTITLE9=One More last Time
EXTD=
EXTT0=
EXTT1=
EXTT2=
EXTT3=
EXTT4=
EXTT5=
EXTT6=
EXTT7=
EXTT8=
EXTT9=
PLAYORDER=
